<svg xmlns="http://www.w3.org/2000/svg" width="150" height="50" viewBox="0,0,150,50"><path d="M21 27 C72 4,89 21,130 14" stroke="#111" fill="none"/><path fill="#333" d="M90.07 29.43L90.16 29.52L90.17 29.53Q88.91 28.69 88.27 28.73L88.28 28.75L88.39 28.85Q86.85 28.76 85.80 29.77L85.83 29.80L85.85 29.81Q84.89 30.91 85.00 32.28L84.98 32.26L84.92 32.20Q85.22 36.53 84.34 41.06L84.31 41.03L84.37 41.09Q82.08 41.47 80.98 42.00L80.99 42.01L80.98 42.00Q82.55 37.89 82.32 33.44L82.37 33.49L82.29 33.42Q82.19 29.05 80.48 24.98L80.44 24.94L80.46 24.96Q81.52 25.56 83.80 26.21L83.84 26.25L84.37 28.91L84.29 28.83Q85.11 26.07 89.37 26.07L89.25 25.94L89.38 26.07Q89.64 25.88 89.94 25.88L89.96 25.89L89.96 25.90Q91.30 25.94 92.56 26.63L92.58 26.65L92.62 26.69Q91.18 27.91 90.04 29.39ZM91.73 31.47L91.85 31.43L91.93 31.52Q92.81 30.34 94.48 27.90L94.47 27.89L94.45 27.87Q93.85 27.38 92.32 27.12L92.34 27.13L92.49 27.28Q92.77 26.92 93.23 26.31L93.21 26.29L93.16 26.24Q91.38 25.45 89.44 25.64L89.34 25.54L89.36 25.56Q87.38 25.71 86.66 25.98L86.71 26.03L86.66 25.98Q85.34 26.49 84.54 27.59L84.51 27.56L84.34 26.75L84.03 25.79L84.07 25.83Q81.74 25.48 79.76 24.15L79.69 24.07L79.68 24.07Q81.88 28.51 82.11 33.39L82.10 33.38L82.19 33.47Q82.30 38.26 80.55 42.79L80.56 42.80L80.49 42.73Q81.68 42.36 82.56 42.05L82.49 41.99L82.55 42.05Q82.23 43.10 81.74 44.17L81.80 44.23L81.67 44.10Q84.58 43.32 86.72 43.21L86.72 43.21L86.99 38.76L86.94 38.71Q87.02 36.43 87.02 34.18L86.98 34.15L87.06 34.23Q87.08 33.07 88.00 32.10L88.02 32.12L87.94 32.04Q88.78 30.99 89.92 30.92L89.94 30.94L89.97 30.97Q90.70 30.94 91.43 31.62L91.36 31.56L91.64 31.38ZM86.76 29.70L86.82 29.68L86.81 29.79L86.65 29.59Z"/><path fill="#444" d="M121.17 40.87L121.29 40.99L121.17 40.86Q119.96 39.28 118.67 36.19L118.62 36.15L116.62 31.14L116.53 31.05Q114.97 35.08 114.36 36.38L114.30 36.32L114.34 36.36Q112.81 39.20 111.21 41.11L111.35 41.25L111.26 41.16Q110.90 41.18 110.14 41.29L110.21 41.37L110.09 41.25Q110.04 33.78 104.22 27.84L104.37 27.99L104.35 27.97Q102.62 26.16 100.60 24.67L100.56 24.64L100.45 24.53Q102.47 25.25 104.33 25.55L104.33 25.55L104.27 25.49Q110.33 30.44 111.77 36.68L111.83 36.74L111.73 36.64Q112.74 34.91 113.92 31.71L113.78 31.57L113.79 31.58Q115.16 27.85 115.73 26.56L115.74 26.57L117.24 26.66L117.10 26.52Q118.12 28.37 119.30 31.65L119.24 31.59L119.15 31.50Q120.56 35.23 121.21 36.64L121.17 36.60L121.08 36.52Q122.92 30.25 128.40 25.68L128.39 25.66L128.55 25.82Q129.66 25.63 132.40 25.06L132.36 25.03L132.42 25.09Q123.70 31.02 122.52 40.99L122.66 41.13L122.02 41.03L121.87 40.88Q121.65 40.96 121.31 41.00ZM124.29 43.45L126.29 43.59L126.25 43.55Q125.94 42.02 125.94 40.49L126.06 40.62L125.97 40.53Q125.94 37.26 127.35 34.02L127.39 34.07L127.44 34.12Q129.31 29.48 133.42 26.40L133.45 26.42L133.43 26.40Q132.23 26.69 130.36 27.03L130.43 27.10L130.36 27.02Q132.36 25.41 133.65 24.49L133.68 24.51L131.13 24.94L131.22 25.03Q129.98 25.24 128.65 25.39L128.55 25.29L128.65 25.39Q123.42 29.57 121.48 34.59L121.57 34.68L121.54 34.65Q120.74 32.33 119.37 28.06L119.38 28.07L119.39 28.08Q119.09 28.13 118.82 28.13L118.80 28.10L118.34 28.17L118.34 28.18Q118.24 27.89 117.44 26.14L117.38 26.07L115.39 26.14L115.47 26.22Q114.37 28.89 112.28 34.53L112.41 34.66L112.45 34.69Q110.95 30.84 107.87 27.57L107.90 27.59L107.88 27.58Q107.73 27.69 107.43 27.65L107.41 27.64L106.79 27.48L106.79 27.47Q105.93 26.65 104.14 25.05L104.09 25.01L104.10 25.01Q100.94 24.37 99.26 23.87L99.37 23.98L99.38 23.99Q110.04 31.37 109.66 41.69L109.74 41.77L109.63 41.66Q109.85 41.69 110.21 41.65L110.17 41.61L110.26 41.70Q110.54 41.58 110.73 41.58L110.73 41.58L110.76 41.61Q110.88 41.58 111.07 43.67L111.02 43.63L112.86 43.37L112.94 43.44Q115.43 40.54 117.68 34.79L117.84 34.94L117.66 34.77Q119.21 38.68 121.07 41.34L121.18 41.44L121.03 41.29Q121.50 41.43 121.77 41.45L121.69 41.36L121.58 41.25Q121.85 41.28 122.12 41.28L122.21 41.37L124.18 43.34Z"/><path fill="#111" d="M34.58 37.88L34.58 37.88L34.69 37.99Q34.89 38.88 35.43 40.90L35.35 40.82L35.44 40.91Q31.29 39.65 26.69 39.92L26.70 39.94L26.58 39.82Q22.04 40.11 18.04 42.09L18.08 42.13L17.99 42.04Q18.34 41.47 18.37 41.55L18.31 41.48L18.29 41.46Q21.95 37.43 25.87 33.01L26.05 33.20L26.05 33.20Q30.30 28.04 31.48 23.36L31.55 23.43L31.61 23.49Q32.08 21.75 30.81 20.57L30.76 20.53L30.80 20.56Q29.45 19.31 27.66 19.46L27.62 19.43L27.75 19.55Q27.38 19.49 27.04 19.49L26.92 19.37L27.00 19.45Q25.52 19.49 24.26 20.40L24.30 20.44L24.25 20.39Q22.93 21.74 23.16 24.41L23.23 24.47L23.11 24.36Q21.39 24.08 20.18 23.63L20.15 23.60L20.21 23.66Q20.01 22.24 19.93 20.80L19.86 20.72L19.96 20.83Q19.75 19.06 20.36 17.91L20.46 18.01L20.38 17.93Q22.18 16.57 25.53 16.57L25.55 16.59L27.35 16.64L27.34 16.63Q29.51 16.55 30.46 16.67L30.63 16.84L30.48 16.68Q34.96 17.25 35.23 19.68L35.18 19.64L35.09 19.54Q35.22 20.17 35.15 20.97L35.21 21.03L35.15 20.98Q35.12 21.63 34.97 22.32L34.89 22.23L34.95 22.30Q33.35 30.45 25.78 37.30L25.67 37.19L25.66 37.18Q27.12 37.09 28.49 37.09L28.53 37.12L28.48 37.07Q31.66 37.02 34.52 37.82ZM34.12 17.17L34.11 17.15L33.95 17.00Q32.45 16.45 30.74 16.38L30.73 16.37L27.37 16.25L27.30 16.18Q22.85 15.91 20.64 17.01L20.66 17.03L20.58 16.95Q19.66 18.46 19.66 20.52L19.61 20.47L19.47 20.33Q19.64 21.19 19.95 24.01L19.82 23.88L19.88 23.94Q20.40 24.15 21.58 24.46L21.70 24.58L21.71 25.62L21.61 25.52Q21.60 26.00 21.67 26.53L21.57 26.43L21.61 26.47Q22.91 26.63 25.38 26.86L25.43 26.90L25.34 26.81Q25.40 26.53 25.40 26.18L25.30 26.09L25.44 26.23Q25.39 24.35 26.61 23.00L26.66 23.05L26.48 22.87Q27.81 21.63 29.60 21.75L29.60 21.75L29.49 21.64Q30.32 21.75 31.08 21.90L31.05 21.87L31.04 21.85Q31.13 22.21 31.21 22.63L31.25 22.68L31.25 22.67Q31.42 23.22 31.34 23.56L31.32 23.54L31.30 23.52Q30.00 28.24 25.58 33.07L25.58 33.07L25.60 33.09Q23.38 35.25 17.94 41.30L18.07 41.43L17.95 41.32Q17.74 42.13 17.40 42.70L17.45 42.76L17.51 42.81Q19.01 41.84 20.53 41.31L20.68 41.46L20.61 41.39Q19.97 42.03 19.02 43.52L18.88 43.38L19.02 43.52Q18.77 43.73 18.65 44.07L18.70 44.12L18.63 44.05Q23.57 42.06 29.05 42.25L28.99 42.18L29.11 42.30Q34.73 42.41 39.30 44.77L39.26 44.73L38.35 42.68L38.26 42.59Q37.75 41.39 37.48 40.59L37.41 40.52L37.36 40.47Q36.66 40.08 35.45 39.66L35.50 39.71L35.36 39.57Q35.27 38.91 34.89 37.54L34.87 37.52L34.84 37.49Q32.69 36.98 30.41 36.79L30.47 36.85L30.34 36.72Q35.15 32.28 36.67 24.02L36.64 23.99L36.77 21.03L36.85 21.12Q36.81 19.36 35.59 18.67L35.61 18.69L35.48 18.60L35.52 18.65Q35.49 18.57 35.41 18.57L35.32 18.48L35.42 18.59Q35.10 17.65 33.99 17.04Z"/><path fill="#222" d="M54.21 26.82L54.18 26.79L54.16 26.78Q56.09 27.07 57.92 27.07L57.79 26.94L57.73 26.88Q59.70 27.06 61.53 26.91L61.35 26.73L61.46 26.84Q61.42 27.56 61.42 28.28L61.34 28.21L61.27 29.47L61.37 29.56Q58.92 29.48 54.17 29.60L54.15 29.59L54.13 29.56Q54.28 35.65 53.14 40.64L53.02 40.52L52.99 40.49Q50.79 41.19 49.31 41.99L49.29 41.96L49.46 42.13Q51.73 35.27 51.46 28.15L51.46 28.15L51.52 28.21Q51.22 21.02 48.55 14.35L48.53 14.33L48.58 14.38Q52.15 16.81 56.91 17.04L57.00 17.12L56.93 17.06Q61.61 17.24 65.76 15.49L65.67 15.40L65.65 15.39Q65.54 16.38 65.31 17.18L65.27 17.14L64.72 18.68L64.74 18.70Q62.10 19.87 59.13 20.02L59.04 19.93L59.14 20.03Q56.09 20.06 53.24 19.34L53.36 19.47L53.30 19.40Q53.97 22.78 54.16 26.78ZM66.30 14.70L66.35 14.75L66.44 14.84Q61.69 16.83 56.82 16.53L56.83 16.54L56.97 16.68Q51.50 16.23 47.76 13.37L47.83 13.44L47.83 13.44Q50.69 20.38 51.00 27.99L50.97 27.97L51.10 28.10Q51.43 36.04 48.92 42.82L48.91 42.80L48.98 42.88Q49.48 42.31 50.85 41.66L50.90 41.71L50.93 41.75Q50.78 42.55 50.21 44.07L50.17 44.03L50.23 44.08Q52.37 42.83 55.26 42.34L55.35 42.43L55.38 42.46Q56.02 37.62 56.21 31.91L56.10 31.79L56.22 31.91Q57.86 31.73 59.68 31.73L59.87 31.91L59.75 31.80Q61.51 31.77 63.34 31.96L63.30 31.92L63.48 32.10Q63.18 30.96 63.18 30.04L63.26 30.12L63.34 28.31L63.19 28.15Q62.48 28.32 61.64 28.32L61.69 28.36L61.72 28.40Q61.65 27.45 61.72 26.42L61.74 26.44L61.77 26.46Q60.30 26.56 58.90 26.56L58.88 26.55L58.95 26.62Q57.63 26.71 56.26 26.67L56.16 26.57L56.17 24.44L56.03 24.30Q56.06 23.27 55.95 22.21L55.98 22.24L56.02 22.28Q56.96 22.30 57.95 22.30L57.98 22.34L57.93 22.29Q62.61 22.20 66.22 20.30L66.34 20.41L66.36 20.43Q66.84 18.59 67.75 15.96L67.82 16.03L67.69 15.90Q66.52 16.86 65.72 17.20L65.60 17.09L65.66 17.14Q65.98 16.44 66.48 14.88Z"/></svg>